# xmcd
#
# Track frame offsets:
#	150
#	16209
#	31182
#	47717
#	60721
#	76794
#	94691
#	112437
#	131913
#	143739
#	160885
#	176816
#	193958
#	210848
#	227408
#	243412
#	263165
#	279884
#	298207
#	312911
#	329629
#
# Disc length: 4648 seconds
#
# Revision: 0
# Processed by: cddbd v1.5.1PL0 Copyright (c) Steve Scherf et al.
# Submitted via: dBpowerAMP V4.0
#
DISCID=32122615
DTITLE=Various Artist - Russkoe Radio
DYEAR=2004
DGENRE=Country
TTITLE0=Zhasmin - Sto Procentov
TTITLE1=A. Buinov - Gorjkij Med
TTITLE2=Meladze i Viagra - Okean i Tri Reki
TTITLE3=V. Butusov i Jupiter - Pesnja Idushevo Domoi
TTITLE4=Reflex - Trudno Govoritj
TTITLE5=Valerija - Pereljei Voda
TTITLE6=Nikolajev - Na Oblozhke Zhurnala
TTITLE7=Ruki Vverh - Desatj Ljet
TTITLE8=Shura - Skazhi Pozhaluista Allo
TTITLE9=Moiseev - Ti Mne Drugom Ne Bil
TTITLE10=K. Oberkaite - Svet Moei Ljubvi
TTITLE11=Drugie Pravila - Ona Tjebe Nuzhna
TTITLE12=S. Rotary - Dozhdik
TTITLE13=A. Pugacheva - I Ischesznjet Grustj
TTITLE14=Nikita - Tak Stranno
TTITLE15=T. Bulanova - Angel
TTITLE16=P. Rostova - Prostji
TTITLE17=E. Doljnikova i Kucenko - Slova
TTITLE18=KoroLeva - Tvoi Mir
TTITLE19=V. Serdjushka i Viagra - Ja ne ponjala
TTITLE20=I. Saryhanov - Ne Rasskazivai
EXTD=Dj Grisha
EXTT0=
EXTT1=
EXTT2=
EXTT3=
EXTT4=
EXTT5=
EXTT6=
EXTT7=
EXTT8=
EXTT9=
EXTT10=
EXTT11=
EXTT12=
EXTT13=
EXTT14=
EXTT15=
EXTT16=
EXTT17=
EXTT18=
EXTT19=
EXTT20=
PLAYORDER=
